<?xml version="1.0" encoding="UTF-8" standalone="no"?>
<!DOCTYPE svg PUBLIC "-//W3C//DTD SVG 1.1//EN" "http://www.w3.org/Graphics/SVG/1.1/DTD/svg11.dtd">
<svg width="100%" height="100%" viewBox="0 0 1974 2260" version="1.1" xmlns="http://www.w3.org/2000/svg" xmlns:xlink="http://www.w3.org/1999/xlink" xml:space="preserve" xmlns:serif="http://www.serif.com/" style="fill-rule:evenodd;clip-rule:evenodd;stroke-linecap:round;stroke-miterlimit:1.5;">
    <g transform="matrix(2.08333,0,0,2.08333,-139.736,2.80567)">
        <g id="Outline" transform="matrix(1.53658,0,0,1.53658,27.424,-267.143)">
            <path d="M333.581,195.099L619.53,360.192L619.53,690.376L333.581,855.468L47.633,690.376L47.633,360.192L333.581,195.099Z" style="fill:none;stroke:#eafaea;stroke-width:19.52px;"/>
        </g>
        <g id="Lettering" transform="matrix(0.870393,0,0,0.870393,108.487,18.5022)">
            <g>
                <g id="G" transform="matrix(0.896659,0,0,0.896659,-196.948,239.44)">
                    <path d="M789.652,363.099L964.702,363.099C964.702,381.099 963.952,397.449 962.452,412.149C960.952,426.849 957.952,440.499 953.452,453.099C947.152,470.799 938.602,486.474 927.802,500.124C917.002,513.774 904.327,525.174 889.777,534.324C875.227,543.474 859.252,550.449 841.852,555.249C824.452,560.049 806.152,562.449 786.952,562.449C760.552,562.449 736.477,558.099 714.727,549.399C692.977,540.699 674.302,528.474 658.702,512.724C643.102,496.974 630.952,478.074 622.252,456.024C613.552,433.974 609.202,409.599 609.202,382.899C609.202,356.499 613.477,332.274 622.027,310.224C630.577,288.174 642.727,269.349 658.477,253.749C674.227,238.149 693.202,225.999 715.402,217.299C737.602,208.599 762.352,204.249 789.652,204.249C825.052,204.249 856.102,211.899 882.802,227.199C909.502,242.499 930.652,266.199 946.252,298.299L862.552,332.949C854.752,314.349 844.627,300.999 832.177,292.899C819.727,284.799 805.552,280.749 789.652,280.749C776.452,280.749 764.452,283.224 753.652,288.174C742.852,293.124 733.627,300.174 725.977,309.324C718.327,318.474 712.327,329.499 707.977,342.399C703.627,355.299 701.452,369.699 701.452,385.599C701.452,399.999 703.327,413.349 707.077,425.649C710.827,437.949 716.452,448.599 723.952,457.599C731.452,466.599 740.752,473.574 751.852,478.524C762.952,483.474 775.852,485.949 790.552,485.949C799.252,485.949 807.652,484.974 815.752,483.024C823.852,481.074 831.127,477.924 837.577,473.574C844.027,469.224 849.352,463.599 853.552,456.699C857.752,449.799 860.602,441.399 862.102,431.499L789.652,431.499L789.652,363.099Z" style="fill:#22aaa1;"/>
                </g>
                <g id="S" transform="matrix(0.896659,0,0,0.896659,-48.6631,11.4387)">
                    <path d="M520.102,300.549C510.502,292.749 500.902,286.974 491.302,283.224C481.702,279.474 472.402,277.599 463.402,277.599C452.002,277.599 442.702,280.299 435.502,285.699C428.302,291.099 424.702,298.149 424.702,306.849C424.702,312.849 426.502,317.799 430.102,321.699C433.702,325.599 438.427,328.974 444.277,331.824C450.127,334.674 456.727,337.149 464.077,339.249C471.427,341.349 478.702,343.599 485.902,345.999C514.702,355.599 535.777,368.424 549.127,384.474C562.477,400.524 569.152,421.449 569.152,447.249C569.152,464.649 566.227,480.399 560.377,494.499C554.527,508.599 545.977,520.674 534.727,530.724C523.477,540.774 509.677,548.574 493.327,554.124C476.977,559.674 458.452,562.449 437.752,562.449C394.852,562.449 355.102,549.699 318.502,524.199L356.302,453.099C369.502,464.799 382.552,473.499 395.452,479.199C408.352,484.899 421.102,487.749 433.702,487.749C448.102,487.749 458.827,484.449 465.877,477.849C472.927,471.249 476.452,463.749 476.452,455.349C476.452,450.249 475.552,445.824 473.752,442.074C471.952,438.324 468.952,434.874 464.752,431.724C460.552,428.574 455.077,425.649 448.327,422.949C441.577,420.249 433.402,417.249 423.802,413.949C412.402,410.349 401.227,406.374 390.277,402.024C379.327,397.674 369.577,391.899 361.027,384.699C352.477,377.499 345.577,368.424 340.327,357.474C335.077,346.524 332.452,332.649 332.452,315.849C332.452,299.049 335.227,283.824 340.777,270.174C346.327,256.524 354.127,244.824 364.177,235.074C374.227,225.324 386.527,217.749 401.077,212.349C415.627,206.949 431.902,204.249 449.902,204.249C466.702,204.249 484.252,206.574 502.552,211.224C520.852,215.874 538.402,222.699 555.202,231.699L520.102,300.549Z" style="fill:#3d6825;"/>
                </g>
                <g id="E" transform="matrix(0.896659,0,0,0.896659,-333.532,461.916)">
                    <path d="M1213.55,288.399L1108.7,288.399L1108.7,345.099L1207.7,345.099L1207.7,419.799L1108.7,419.799L1108.7,478.299L1213.55,478.299L1213.55,552.999L1020.5,552.999L1020.5,213.699L1213.55,213.699L1213.55,288.399Z" style="fill:#952dcf;"/>
                </g>
            </g>
        </g>
        <g id="Dice-Inner" serif:id="Dice Inner" transform="matrix(1,0,0,0.822493,0,43.688)">
            <g>
                <g id="Dice-Inner1" serif:id="Dice Inner">
                    <g>
                        <g id="CenterTri" transform="matrix(-1,-1.48895e-16,1.22465e-16,-1.21582,1169.96,1344.75)">
                            <path d="M629.307,300.681L901.76,772.585L356.854,772.585L629.307,300.681Z" style="fill:none;"/>
                        </g>
                        <g id="UpperLeft" transform="matrix(1,0,0,1.21582,0,-53.1165)">
                            <path d="M104.701,287.546L101.024,460.119" style="fill:none;stroke:#eafaea;stroke-width:20px;stroke-linecap:butt;stroke-miterlimit:3.11047;"/>
                        </g>
                        <g id="UpperRight" transform="matrix(1,0,0,1.21582,0,-53.1165)">
                            <path d="M981.69,477.845L976.601,286.278" style="fill:none;stroke:#eafaea;stroke-width:20.05px;stroke-linecap:butt;stroke-miterlimit:3.11047;"/>
                        </g>
                        <g id="UpperCenterRight" transform="matrix(1,0,0,1.21582,0,-53.1165)">
                            <path d="M541.075,31.326L916.63,248.137" style="fill:none;stroke:#eafaea;stroke-width:20px;stroke-linecap:butt;stroke-miterlimit:3.11047;"/>
                        </g>
                        <g id="UpperCenterLeft" transform="matrix(1,0,0,1.21582,0,-53.1165)">
                            <path d="M137.573,265.228L537.876,32.239" style="fill:none;stroke:#eafaea;stroke-width:20px;stroke-linecap:butt;stroke-miterlimit:3.11047;"/>
                        </g>
                        <g id="MidRight" transform="matrix(0.998835,0.000591745,-0.00680924,1.22352,3.24971,-50.6256)">
                            <path d="M979.893,793.074L977.613,340.454" style="fill:none;stroke:#eafaea;stroke-width:20.01px;stroke-linecap:butt;stroke-miterlimit:3.11047;"/>
                        </g>
                        <g id="MidLeft" transform="matrix(0.997497,-0.00511021,0.0173488,1.2121,-5.19824,-40.501)">
                            <path d="M99.419,332.813L96.382,793.074" style="fill:none;stroke:#eafaea;stroke-width:19.92px;stroke-linecap:butt;stroke-miterlimit:3.11047;"/>
                        </g>
                        <g id="LowerCenter" transform="matrix(1,0,0,1.21582,1.86242,-53.1165)">
                            <path d="M538.138,1050.62L538.138,1050.62Z" style="fill:none;stroke:#eafaea;stroke-width:20px;stroke-linecap:butt;stroke-miterlimit:3.11047;"/>
                        </g>
                        <g id="LowerLeft" transform="matrix(0.999991,0.00529759,-0.00435723,1.2158,3.4398,-53.6621)">
                            <path d="M104.701,789.218L514.046,1033.49" style="fill:none;stroke:#eafaea;stroke-width:20px;stroke-linecap:butt;stroke-miterlimit:3.11047;"/>
                        </g>
                        <g id="LowerRight" transform="matrix(-1,0.000691089,-0.000568415,-1.21582,1516.97,1893.33)">
                            <path d="M964.73,557.566L539.905,812.026" style="fill:none;stroke:#eafaea;stroke-width:20px;stroke-linecap:butt;stroke-miterlimit:3.11047;"/>
                        </g>
                    </g>
                </g>
            </g>
        </g>
    </g>
</svg>